<svg width="26" height="26" viewBox="0 0 26 26" fill="none" xmlns="http://www.w3.org/2000/svg">
<path d="M7.44848 14.7005C9.21279 14.7005 10.6267 16.1282 10.6267 17.905V22.1706C10.6267 23.9349 9.21279 25.3739 7.44848 25.3739H3.21915C1.46735 25.3739 0.0408936 23.9349 0.0408936 22.1706V17.905C0.0408936 16.1282 1.46735 14.7005 3.21915 14.7005H7.44848ZM21.8884 14.7005C23.6402 14.7005 25.0667 16.1282 25.0667 17.905V22.1706C25.0667 23.9349 23.6402 25.3739 21.8884 25.3739H17.6591C15.8948 25.3739 14.4808 23.9349 14.4808 22.1706V17.905C14.4808 16.1282 15.8948 14.7005 17.6591 14.7005H21.8884ZM7.44848 0.348633C9.21279 0.348633 10.6267 1.78761 10.6267 3.55317V7.81879C10.6267 9.59561 9.21279 11.0221 7.44848 11.0221H3.21915C1.46735 11.0221 0.0408936 9.59561 0.0408936 7.81879V3.55317C0.0408936 1.78761 1.46735 0.348633 3.21915 0.348633H7.44848ZM21.8884 0.348633C23.6402 0.348633 25.0667 1.78761 25.0667 3.55317V7.81879C25.0667 9.59561 23.6402 11.0221 21.8884 11.0221H17.6591C15.8948 11.0221 14.4808 9.59561 14.4808 7.81879V3.55317C14.4808 1.78761 15.8948 0.348633 17.6591 0.348633H21.8884Z" fill="#EFF2F4"/>
</svg>
