<svg width="20" height="20" viewBox="0 0 20 20" fill="none" xmlns="http://www.w3.org/2000/svg">
<g clip-path="url(#clip0_413_1452)">
<path d="M19.2656 15.125L15.75 12.5625C15.3593 12.2812 14.8281 12.3125 14.4843 12.6562L12.6093 14.5C12.2812 14.8125 11.7656 14.8125 11.4375 14.4843L8.18747 11.2343L5.51559 8.57808C5.18747 8.24996 5.18747 7.73433 5.49997 7.40621L7.34372 5.53121C7.67184 5.18746 7.71872 4.65621 7.43747 4.26558L4.87497 0.734335C4.51559 0.24996 3.81247 0.203085 3.39059 0.62496L2.06247 1.95308C1.98434 2.03121 1.90622 2.12496 1.82809 2.21871C1.57809 2.49996 1.06247 3.15621 0.859344 3.56246C-0.093781 5.53121 0.281219 7.90621 1.74997 9.53121L10.4687 18.25C12.0937 19.7187 14.4531 20.0937 16.4375 19.1406C16.8593 18.9375 17.5 18.4062 17.7812 18.1718C17.875 18.0937 17.9531 18.0156 18.0468 17.9375L19.375 16.6093C19.7968 16.1875 19.75 15.4843 19.2656 15.125Z" fill="#2D3E50"/>
</g>
<defs>
<clipPath id="clip0_413_1452">
<rect width="20" height="20" fill="white"/>
</clipPath>
</defs>
</svg>
