<svg width="24" height="24" viewBox="0 0 24 24" fill="none" xmlns="http://www.w3.org/2000/svg">
<path fill-rule="evenodd" clip-rule="evenodd" d="M15.3333 0H8.66667L8.66667 2.82353C8.66667 3.9281 7.77124 4.82353 6.66667 4.82353C5.5621 4.82353 4.66667 3.9281 4.66667 2.82353L4.66667 0.0541455C2.98946 0.153782 1.93064 0.436767 1.17157 1.24049C0 2.48098 0 4.47751 0 8.47059V15.5294C0 19.5225 0 21.519 1.17157 22.7595C2.34314 24 4.22876 24 7.99998 24H8H16H16C19.7712 24 21.6569 24 22.8284 22.7595C24 21.519 24 19.5225 24 15.5294V15.5294V8.47059V8.47057C24 4.47751 24 2.48098 22.8284 1.24049C22.0694 0.436767 21.0105 0.153782 19.3333 0.0541455L19.3333 2.82353C19.3333 3.9281 18.4379 4.82352 17.3333 4.82352C16.2288 4.82352 15.3333 3.92809 15.3333 2.82352L15.3333 0ZM5.66667 11.2941C5.66667 10.7418 6.11438 10.2941 6.66667 10.2941L17.3333 10.2941C17.8856 10.2941 18.3333 10.7418 18.3333 11.2941C18.3333 11.8464 17.8856 12.2941 17.3333 12.2941L6.66667 12.2941C6.11438 12.2941 5.66667 11.8464 5.66667 11.2941ZM6.66667 15.9412C6.11438 15.9412 5.66667 16.3889 5.66667 16.9412C5.66667 17.4935 6.11438 17.9412 6.66667 17.9412H17.3333C17.8856 17.9412 18.3333 17.4935 18.3333 16.9412C18.3333 16.3889 17.8856 15.9412 17.3333 15.9412L6.66667 15.9412Z" fill="red"/>
</svg>
