<svg width="25" height="25" viewBox="0 0 25 25" fill="none" xmlns="http://www.w3.org/2000/svg">
<path d="M17.9153 0.584627C19.6698 0.474972 21.4 1.08417 22.7036 2.27819C23.8977 3.58186 24.5069 5.31198 24.4094 7.07864V18.4584C24.5191 20.2251 23.8977 21.9552 22.7158 23.2589C21.4121 24.4529 19.6698 25.0621 17.9153 24.9524H6.53548C4.7688 25.0621 3.03868 24.4529 1.73499 23.2589C0.540958 21.9552 -0.0682419 20.2251 0.0414141 18.4584V7.07864C-0.0682419 5.31198 0.540958 3.58186 1.73499 2.27819C3.03868 1.08417 4.7688 0.474972 6.53548 0.584627H17.9153ZM17.5985 6.15267C16.8431 5.39727 15.6247 5.39727 14.8693 6.15267L14.053 6.98117C13.9312 7.10301 13.9312 7.31014 14.053 7.43198C14.053 7.43198 14.0769 7.45574 14.1195 7.49806L14.4192 7.79611C14.5925 7.96859 14.8089 8.18399 15.0262 8.4006L15.763 9.13702C15.9167 9.29145 16.0187 9.39494 16.0268 9.40577C16.1608 9.55197 16.2461 9.74692 16.2461 9.96623C16.2461 10.4048 15.8928 10.7704 15.442 10.7704C15.2349 10.7704 15.0399 10.6851 14.9059 10.5511L12.8712 8.52853C12.7737 8.43106 12.6031 8.43106 12.5056 8.52853L6.69387 14.3402C6.2918 14.7423 6.06031 15.2784 6.04812 15.851L5.97502 18.7386C5.97502 18.897 6.02375 19.0432 6.13341 19.1529C6.24307 19.2625 6.38927 19.3235 6.54767 19.3235H9.4109C9.99574 19.3235 10.5562 19.092 10.9826 18.6777L19.1825 10.4536C19.9257 9.69818 19.9257 8.47979 19.1825 7.73657L17.5985 6.15267Z" fill="red"/>
</svg>
