<svg width="26" height="26" viewBox="0 0 26 26" fill="none" xmlns="http://www.w3.org/2000/svg">
<path d="M18.3914 0.115349C20.1914 0.00285032 21.9664 0.627845 23.3039 1.85283C24.5289 3.19032 25.1539 4.96531 25.0539 6.77779V18.4527C25.1664 20.2652 24.5289 22.0402 23.3164 23.3776C21.9789 24.6026 20.1914 25.2276 18.3914 25.1151H6.71644C4.90394 25.2276 3.12895 24.6026 1.79145 23.3776C0.566448 22.0402 -0.0585518 20.2652 0.053948 18.4527V6.77779C-0.0585518 4.96531 0.566448 3.19032 1.79145 1.85283C3.12895 0.627845 4.90394 0.00285032 6.71644 0.115349H18.3914ZM18.0664 5.8278C17.2914 5.0528 16.0414 5.0528 15.2664 5.8278L14.4289 6.67779C14.3039 6.80279 14.3039 7.01529 14.4289 7.14029C14.4289 7.14029 14.4535 7.16467 14.4971 7.20808L14.8046 7.51387C14.9825 7.69082 15.2045 7.91181 15.4274 8.13403L16.1833 8.88955C16.341 9.04798 16.4456 9.15416 16.4539 9.16527C16.5914 9.31527 16.6789 9.51526 16.6789 9.74026C16.6789 10.1903 16.3164 10.5653 15.8539 10.5653C15.6414 10.5653 15.4414 10.4778 15.3039 10.3403L13.2164 8.26528C13.1164 8.16528 12.9414 8.16528 12.8414 8.26528L6.87894 14.2277C6.46644 14.6402 6.22894 15.1902 6.21644 15.7777L6.14144 18.7402C6.14144 18.9027 6.19144 19.0527 6.30394 19.1652C6.41644 19.2777 6.56644 19.3402 6.72894 19.3402H9.66644C10.2664 19.3402 10.8414 19.1027 11.2789 18.6777L19.6914 10.2403C20.4539 9.46527 20.4539 8.21528 19.6914 7.45278L18.0664 5.8278Z" fill="white"/>
</svg>
