<svg width="20" height="16" viewBox="0 0 20 16" fill="none" xmlns="http://www.w3.org/2000/svg">
<g clip-path="url(#clip0_496_17764)">
<path d="M10.6901 8.06C10.5064 8.22584 10.2676 8.31764 10.0201 8.31764C9.7726 8.31764 9.53387 8.22584 9.35012 8.06L0.870117 0.35C1.20287 0.122058 1.59678 5.35399e-05 2.00012 0H18.0001C18.4035 5.35399e-05 18.7974 0.122058 19.1301 0.35L10.6901 8.06Z" fill="#464646"/>
<path d="M20 2.26001V13C20 13.7957 19.6839 14.5587 19.1213 15.1213C18.5587 15.6839 17.7956 16 17 16H3C2.20435 16 1.44129 15.6839 0.87868 15.1213C0.316071 14.5587 0 13.7957 0 13V2.26001L8.68 10.18C9.04606 10.4979 9.51515 10.6721 10 10.67C10.4909 10.669 10.9643 10.4875 11.33 10.16L20 2.26001Z" fill="#464646"/>
</g>
<defs>
<clipPath id="clip0_496_17764">
<rect width="20" height="16" fill="white"/>
</clipPath>
</defs>
</svg>
