<svg width="24" height="25" viewBox="0 0 24 25" fill="none" xmlns="http://www.w3.org/2000/svg">
<path d="M8.73372 22.9296V19.2C8.73372 18.2479 9.51117 17.4761 10.4702 17.4761H13.9759C14.4364 17.4761 14.8781 17.6578 15.2038 17.981C15.5294 18.3043 15.7124 18.7428 15.7124 19.2V22.9296C15.7095 23.3254 15.8658 23.706 16.1467 23.9869C16.4276 24.2678 16.8099 24.4258 17.2086 24.4258H19.6003C20.7173 24.4286 21.7896 23.9901 22.5805 23.207C23.3714 22.4239 23.8159 21.3606 23.8159 20.2516V9.62666C23.8159 8.73089 23.4159 7.88121 22.7238 7.30651L14.5875 0.855625C13.1722 -0.275436 11.1443 -0.238917 9.77123 0.942359L1.8206 7.30651C1.09575 7.86427 0.662522 8.71647 0.641113 9.62666V20.2408C0.641113 22.5521 2.52849 24.4258 4.8567 24.4258H7.19383C8.02195 24.4258 8.69496 23.7625 8.70096 22.9404L8.73372 22.9296Z" fill="#F23535"/>
</svg>
