<svg width="25" height="26" viewBox="0 0 25 26" fill="none" xmlns="http://www.w3.org/2000/svg">
<path d="M8.9686 23.5316V19.7056C8.9686 18.7289 9.76616 17.9371 10.75 17.9371H14.3464C14.8189 17.9371 15.272 18.1234 15.606 18.4551C15.9401 18.7867 16.1278 19.2365 16.1278 19.7056V23.5316C16.1248 23.9377 16.2852 24.3281 16.5734 24.6163C16.8616 24.9045 17.2537 25.0665 17.6627 25.0665H20.1163C21.2623 25.0695 22.3623 24.6196 23.1736 23.8163C23.985 23.0129 24.441 21.922 24.441 20.7844V9.88455C24.441 8.96561 24.0306 8.09395 23.3206 7.50438L14.9738 0.886596C13.5219 -0.273727 11.4416 -0.236263 10.033 0.975575L1.87663 7.50438C1.13303 8.07657 0.688589 8.95082 0.666626 9.88455V20.7733C0.666626 23.1444 2.60284 25.0665 4.99127 25.0665H7.38888C8.23842 25.0665 8.92884 24.3861 8.93499 23.5428L8.9686 23.5316Z" fill="#EFF2F4"/>
</svg>
