<svg width="32" height="32" viewBox="0 0 32 32" fill="none" xmlns="http://www.w3.org/2000/svg">
<path d="M16.0677 1.00337e-10C16.2447 1.00337e-10 16.4218 -1.38543e-08 16.5988 2.87374e-07C16.6825 0.0383875 16.7617 0.0988143 16.8506 0.110842C17.0767 0.141417 17.3 0.168411 17.4841 0.292748C17.5851 0.360962 17.6902 0.426389 17.7818 0.502524C18.0256 0.704985 18.2642 0.911629 18.5021 1.11876C18.5658 1.17419 18.628 1.26101 18.5152 1.30067C18.269 1.3872 18.369 1.51425 18.4201 1.64658C18.5072 1.87227 18.6004 2.09722 18.6667 2.32724C18.7291 2.54397 18.8304 2.77668 18.7875 2.98458C18.7317 3.25497 18.8264 3.44857 19.0085 3.64512C19.151 3.79903 19.2237 3.97325 19.2081 4.16957C19.1991 4.28256 19.1538 4.34724 18.9912 4.35214C18.7658 4.35894 18.724 4.41811 18.6839 4.60327C18.6381 4.81438 18.5686 5.022 18.5088 5.23102C18.506 5.2408 18.4975 5.24955 18.4912 5.25858C18.3275 5.49458 18.2515 5.74733 18.2673 6.0199C18.2719 6.09902 18.2568 6.17891 18.2513 6.2513C17.9215 6.2513 17.6254 6.24942 17.3295 6.25386C17.2953 6.25437 17.2321 6.29256 17.2341 6.30885C17.2385 6.34355 17.2682 6.39481 17.3028 6.4053C17.6358 6.5065 17.9468 6.67466 18.335 6.60486C18.4847 6.57794 18.6509 6.58888 18.8051 6.60775C19.2236 6.65898 19.6395 6.72485 20.0569 6.78274C20.5552 6.85185 21.0466 6.91658 21.4803 7.17076C21.6633 7.27803 21.926 7.3301 22.1561 7.3382C22.6431 7.35534 23.0875 7.46953 23.5162 7.64321C23.9132 7.80403 24.2712 7.99124 24.4103 8.37751C24.4512 8.49127 24.5883 8.59272 24.7073 8.67396C24.9642 8.84931 25.2356 9.01073 25.507 9.17094C25.5609 9.20278 25.6547 9.23132 25.7081 9.21437C26.0197 9.11535 26.3519 9.03624 26.6265 8.88712C27.2321 8.55821 27.832 8.21545 28.3857 7.83091C28.686 7.62237 28.9033 7.32569 29.126 7.05115C29.2633 6.88194 29.3337 6.67679 29.4465 6.49297C29.5243 6.36638 29.5116 6.26672 29.4114 6.14741C29.3338 6.05502 29.286 5.93346 29.2711 5.82074C29.2537 5.68832 29.297 5.55125 29.2936 5.41654C29.2912 5.32123 29.2622 5.22488 29.2321 5.13185C29.179 4.96819 29.1134 4.80733 29.0582 4.6441C29.0259 4.54842 29.0789 4.49799 29.1894 4.45472C29.5583 4.31028 29.9544 4.24911 30.3501 4.25467C31.279 4.26772 31.7176 4.74957 31.3677 5.4951C31.2459 5.75476 31.1463 6.03314 31.1196 6.30845C31.0874 6.63994 30.9726 6.93395 30.7979 7.22822C30.6434 7.48848 30.5386 7.76891 30.4157 8.0416C30.3789 8.12324 30.3726 8.21711 30.3216 8.29098C30.1658 8.51669 29.9971 8.73644 29.8296 8.9566C29.5525 9.32101 29.5982 9.69679 29.8115 10.0573C30.0165 10.4036 30.1092 10.7588 30.0779 11.1392C30.0606 11.3495 29.891 11.5065 29.6518 11.5624C29.1872 11.671 28.7717 11.86 28.3808 12.0928C28.1835 12.2104 27.973 12.3172 27.7543 12.405C27.4812 12.5146 27.1935 12.5993 26.9122 12.6951C26.4631 12.8482 26.0049 12.9457 25.5122 12.8718C25.1842 12.8226 24.8525 12.7897 24.5254 12.7373C24.2742 12.697 24.0268 12.64 23.7792 12.5858C23.6166 12.5502 23.4502 12.5184 23.2969 12.4634C23.0855 12.3875 22.8882 12.2853 22.6787 12.2054C22.4175 12.1058 22.1169 12.054 21.9624 11.8268C21.8849 11.7126 21.7753 11.6829 21.6353 11.6806C21.3289 11.6755 21.0226 11.6687 20.7162 11.6647C20.5669 11.6627 20.5496 11.7188 20.6049 11.8243C20.7419 12.0856 20.856 12.3489 20.8683 12.6429C20.8836 13.01 20.8965 13.3773 21.0453 13.7362C21.1383 13.9604 21.0015 14.1756 20.8623 14.3806C20.7806 14.501 20.7292 14.6477 20.719 14.7854C20.7089 14.9219 20.7615 15.063 20.7981 15.2C20.8319 15.3263 20.8096 15.4158 20.6802 15.5127C20.5102 15.6399 20.3489 15.7955 20.403 16.0135C20.4421 16.1714 20.4848 16.3304 20.5516 16.4812C20.5903 16.5683 20.6611 16.6854 20.7501 16.7107C21.096 16.8088 21.3356 17.0178 21.5847 17.2133C21.9056 17.4652 22.2909 17.5478 22.7138 17.5906C23.0549 17.625 23.4074 17.6655 23.723 17.7691C24.1698 17.9158 24.588 18.1221 25.0173 18.3047C25.441 18.485 25.8527 18.6873 26.2887 18.8442C26.8632 19.0508 27.4518 19.2325 28.0426 19.4061C28.5829 19.5648 29.1536 19.6912 29.455 20.1368C29.6611 20.4417 29.8772 20.7674 29.9472 21.1037C30.0745 21.7152 30.0696 22.3445 30.17 22.9609C30.2626 23.5293 30.1874 24.0942 30.2079 24.6599C30.2214 25.0321 30.2967 25.403 30.35 25.774C30.3951 26.0884 30.4802 26.4012 30.4912 26.716C30.5112 27.2879 30.4717 27.8612 30.4932 28.433C30.5023 28.6738 30.4316 28.8834 30.3174 29.0924C30.196 29.3146 30.0122 29.4571 29.6864 29.4268C29.5619 29.4152 29.4337 29.4266 29.3076 29.4327C29.2424 29.4359 29.1781 29.4504 29.0716 29.4659C29.3198 29.7187 29.497 29.975 29.8044 30.1431C30.2398 30.3812 30.6702 30.6255 31.1043 30.8652C31.156 30.8938 31.2156 30.9145 31.2746 30.932C31.6209 31.0345 31.9179 31.1747 31.964 31.5174C31.9672 31.5418 31.9876 31.5646 32 31.5881C32 31.6506 32 31.7131 32 31.7755C31.8567 31.9156 31.6752 31.9975 31.4524 31.9706C31.1992 31.9399 30.9485 31.8928 30.6993 31.8438C30.569 31.8182 30.4643 31.7764 30.3076 31.8218C30.1509 31.8673 29.9342 31.8522 29.7761 31.7988C29.4052 31.6734 29.053 31.5101 28.6942 31.3605C28.4098 31.242 28.112 31.1962 27.7943 31.2304C27.6756 31.2431 27.5519 31.2538 27.4351 31.2396C27.302 31.2234 27.1658 31.1921 27.046 31.1427C26.8863 31.0768 26.7426 30.9851 26.5885 30.9094C26.5617 30.8963 26.517 30.904 26.4814 30.9075C26.2662 30.929 26.1455 30.8331 26.1699 30.6592C26.212 30.3593 26.2607 30.06 26.2931 29.7594C26.3141 29.5632 26.3609 29.3556 26.3086 29.1699C26.1995 28.7826 26.1175 28.3967 26.1091 27.999C26.1073 27.9134 26.0933 27.8146 26.0399 27.7454C25.7764 27.404 25.6082 27.0324 25.4761 26.646C25.4286 26.5072 25.354 26.3748 25.2936 26.239C25.1969 26.0214 25.1004 25.8038 25.0068 25.5854C24.9717 25.5037 24.9218 25.42 24.9196 25.3365C24.9153 25.176 24.9304 25.0138 24.9579 24.8548C24.9687 24.7927 25.0433 24.7399 25.0724 24.6777C25.0948 24.6297 25.1218 24.557 25.0949 24.5238C24.9256 24.3142 24.6417 24.2598 24.3712 24.2203C23.9873 24.1643 23.6169 24.0953 23.2918 23.907C23.0956 23.7933 22.8751 23.7521 22.6338 23.7366C22.4535 23.725 22.2502 23.6838 22.1078 23.5983C21.8019 23.4148 21.5505 23.18 21.1465 23.112C20.7948 23.0529 20.4575 22.936 20.1061 22.8426C20.1033 22.8625 20.0946 22.8922 20.096 22.9215C20.1233 23.4983 20.1551 24.075 20.1789 24.6519C20.1929 24.9931 20.141 25.0483 19.7447 25.1695C19.6796 25.1893 19.6156 25.2117 19.5499 25.2299C19.4208 25.2657 19.1951 25.1827 19.1613 25.0784C19.1213 24.9544 19.0784 24.8277 19.0705 24.7007C19.046 24.3017 19.0463 23.9016 19.0191 23.5028C19.0039 23.2802 18.9798 23.0536 18.9119 22.8391C18.8177 22.5416 18.7681 22.5196 18.4236 22.5011C18.2938 22.4942 18.1587 22.5377 18.0308 22.5252C17.3728 22.4606 16.7203 22.4855 16.0661 22.5631C15.6677 22.6104 15.2607 22.6123 14.8645 22.6678C14.244 22.7547 13.6327 22.8884 13.0109 22.9668C12.538 23.0265 12.0552 23.0352 11.5763 23.0577C11.4384 23.0642 11.3623 23.0841 11.3411 23.2159C11.3198 23.3478 11.2596 23.4779 11.1968 23.6021C11.1249 23.7442 11.0048 23.8724 10.9527 24.0181C10.8424 24.326 10.7532 24.6398 10.6748 24.9545C10.6377 25.1036 10.5484 25.1901 10.3746 25.216C10.257 25.2336 10.1364 25.2452 10.0172 25.2454C9.82719 25.2458 9.66458 25.0595 9.70989 24.9061C9.79016 24.6343 9.87714 24.3636 9.94648 24.0899C10.0024 23.8692 10.0365 23.6446 10.0866 23.3894C9.94593 23.4 9.80822 23.396 9.68041 23.4233C9.46868 23.4686 9.26391 23.5355 9.05513 23.5906C8.82146 23.6522 8.58374 23.7042 8.35297 23.7723C8.05791 23.8593 7.7752 23.9803 7.47416 24.0466C7.07355 24.1349 6.6609 24.1867 6.25205 24.248C6.19819 24.2561 6.13592 24.2282 6.07808 24.2154C6.0384 24.2066 5.99964 24.1949 5.96047 24.1845C5.94711 24.2217 5.91951 24.2598 5.92299 24.2959C5.93446 24.415 5.96863 24.5331 5.97362 24.6522C5.99915 25.261 6.04157 25.8703 6.02949 26.4787C6.02372 26.7687 5.9796 27.0635 5.82352 27.3449C5.726 27.5206 5.72405 27.7381 5.71 27.9383C5.68634 28.2753 5.6809 28.6135 5.67988 28.9511C5.67919 29.1797 5.69402 29.4086 5.71119 29.6369C5.73686 29.9782 5.77119 30.3189 5.80079 30.66C5.81102 30.7778 5.75034 30.8679 5.61526 30.9049C5.23361 31.0097 4.85013 31.1102 4.46445 31.2043C4.39716 31.2208 4.31241 31.2073 4.24134 31.191C4.01341 31.1388 3.80625 31.1632 3.61016 31.2746C3.34852 31.4232 3.04842 31.4657 2.73864 31.4998C2.3908 31.538 2.0456 31.5998 1.7042 31.6681C1.44356 31.7202 1.18977 31.7964 0.934751 31.8664C0.852463 31.8889 0.775546 31.9251 0.696832 31.9561C0.506163 32.0314 0.311637 32.0058 0.160204 31.9099C0.070821 31.8533 -0.0062497 31.7256 0.000400811 31.6343C0.0263401 31.2781 0.410669 30.9504 0.82784 30.8653C0.988016 30.8327 1.16823 30.7825 1.28109 30.6914C1.73475 30.3251 2.30354 30.0531 2.63523 29.587C2.67551 29.5304 2.69127 29.4619 2.71839 29.3989C2.64324 29.3887 2.56775 29.3683 2.49298 29.3699C2.05991 29.3794 1.62706 29.3955 1.19402 29.406C1.06803 29.4091 0.995264 29.3602 0.989693 29.2471C0.980992 29.0705 0.969374 28.8936 0.947328 28.7178C0.896773 28.3147 0.8038 27.9129 0.791712 27.5092C0.765592 26.6371 0.748156 25.7632 0.785219 24.8917C0.828277 23.8792 0.822838 22.8621 1.03854 21.8586C1.12875 21.439 1.21557 21.0188 1.31096 20.5999C1.35825 20.3923 1.51273 20.2309 1.73323 20.1417C2.14586 19.9748 2.56456 19.8115 2.9981 19.6882C3.41627 19.5692 3.78686 19.3973 4.15176 19.1962C4.50558 19.0012 4.88309 18.8277 5.27245 18.6865C5.60496 18.5658 5.99493 18.5444 6.31237 18.4059C6.67923 18.2459 7.06351 18.1719 7.45405 18.0894C7.6521 18.0475 7.85266 17.9894 8.02842 17.9052C8.43965 17.7081 8.80096 17.4392 9.27625 17.3343C9.32195 17.3243 9.378 17.2625 9.3818 17.2217C9.39769 17.0511 9.42439 16.8758 9.39456 16.7086C9.29903 16.1731 9.31055 15.6423 9.43413 15.1118C9.48937 14.8747 9.49903 14.6513 9.27054 14.4552C9.1832 14.3802 9.15075 14.2623 9.09063 14.1652C9.05119 14.1014 9.01162 14.0371 8.96413 13.9773C8.77847 13.7438 8.54699 13.5275 8.41148 13.276C8.17904 12.8445 8.00214 12.3921 8.03448 11.9062C8.04382 11.7658 8.05587 11.6253 8.05503 11.4849C8.05464 11.4197 8.02796 11.3544 8.0103 11.2897C7.98997 11.2152 7.95208 11.142 7.94687 11.0671C7.92738 10.7867 7.91509 10.506 7.90679 10.2252C7.90414 10.1355 7.91046 10.0432 7.93302 9.95566C7.99678 9.70828 8.10112 9.46549 8.13464 9.21589C8.19499 8.7665 8.40176 8.34929 8.71621 8.01185C9.09806 7.60209 9.64914 7.31723 10.2081 7.06684C10.5181 6.92794 10.822 6.7792 11.1365 6.64776C11.2911 6.58317 11.4632 6.54652 11.6284 6.49972C11.7697 6.45971 11.9133 6.42523 12.0543 6.38475C12.2489 6.32892 12.4379 6.25633 12.6368 6.21536C12.894 6.16236 13.0594 6.02486 13.1059 5.80105C13.1237 5.71559 13.1624 5.63124 13.2059 5.55171C13.2664 5.44119 13.3355 5.33333 13.4095 5.22845C13.6927 4.82709 13.6806 4.38916 13.631 3.95174C13.5515 3.25088 13.3836 2.55325 13.5976 1.84832C13.6796 1.57844 13.7289 1.30193 13.804 1.03048C13.8228 0.962225 13.8807 0.900451 13.9256 0.838076C14.0153 0.713206 14.1149 0.592841 14.1983 0.465247C14.2773 0.344442 14.372 0.263604 14.5559 0.288497C14.5995 0.294397 14.6743 0.285364 14.6908 0.262065C14.7878 0.125505 14.9185 0.140626 15.0689 0.182074C15.1257 0.197742 15.1966 0.201446 15.2542 0.188998C15.5266 0.130093 15.7968 0.0637146 16.0677 1.00337e-10Z" fill="red"/>
</svg>
