<svg width="31" height="30" viewBox="0 0 31 30" fill="none" xmlns="http://www.w3.org/2000/svg">
<path d="M6.89151 30C6.93768 29.7605 7.11827 29.6283 7.36099 29.5312C7.7223 29.3866 8.11155 29.3295 8.48966 29.2373C8.98173 29.1173 9.46032 28.9693 9.88861 28.7201C10.4078 28.418 10.7466 28.0079 10.869 27.4719C10.887 27.3935 10.8893 27.312 10.8935 27.2317C10.9331 26.4745 10.9147 25.7182 10.8525 24.9622C10.754 23.766 10.6809 22.5685 10.6997 21.3687C10.7057 20.9885 10.7232 20.6062 10.7762 20.2291C10.8501 19.7027 11.0984 19.227 11.427 18.782C11.4528 18.7471 11.4715 18.7027 11.4747 18.6617C11.5366 17.8565 11.5166 17.0506 11.4984 16.2448C11.4915 15.9396 11.4804 15.6344 11.4775 15.3292C11.4768 15.2621 11.4492 15.2384 11.378 15.2328C11.1536 15.2151 10.7921 15.3815 10.699 15.558C10.6704 15.6123 10.6564 15.6832 10.6689 15.7412C10.731 16.0305 10.6277 16.2615 10.3603 16.4369C10.1363 16.5839 9.87444 16.6503 9.60019 16.6776C9.44122 16.6934 9.27969 16.6887 9.11987 16.6996C8.79373 16.7217 8.52993 16.8644 8.28234 17.0353C8.20081 17.0915 8.11396 17.1441 8.0434 17.2097C7.91046 17.3331 7.74116 17.3593 7.56114 17.3677C7.11489 17.3887 6.70355 17.2787 6.33372 17.0771C5.9029 16.8423 5.4893 16.5833 5.07354 16.3282C4.75799 16.1347 4.4638 15.9182 4.20728 15.6656C3.92411 15.3868 3.71427 15.0742 3.60259 14.7126C3.52779 14.4704 3.42506 14.2342 3.36115 13.9902C3.24474 13.5456 3.23243 13.0903 3.20503 12.6367C3.17824 12.1932 3.1437 11.7499 3.10315 11.3072C3.09008 11.1645 3.04848 11.0236 3.01671 10.8824C3.01119 10.8579 2.99447 10.8321 2.9746 10.8136C2.75368 10.6084 2.53066 10.4048 2.30913 10.2001C2.094 10.0012 1.86511 9.81792 1.57047 9.70961C1.53536 9.6967 1.49482 9.68745 1.45718 9.68837C1.2267 9.69397 1.02163 9.63266 0.850571 9.50229C0.514806 9.24639 0.360119 8.93213 0.461562 8.54056C0.46836 8.51432 0.454113 8.47875 0.437173 8.45392C0.239428 8.16409 0.0687153 7.86228 0.0235576 7.52509C-0.0542929 6.94378 0.0442959 6.39655 0.569957 5.97892C1.08216 5.57198 1.69212 5.44275 2.37333 5.56605C2.45529 5.58088 2.54057 5.58145 2.62402 5.59066C2.96151 5.62792 3.20499 5.78811 3.3823 6.03175C3.42874 6.09555 3.47218 6.16174 3.5085 6.23022C3.71289 6.61558 3.90327 7.00494 4.03957 7.41432C4.10288 7.60451 4.20283 7.78772 4.30733 7.96471C4.39158 8.10739 4.53244 8.20943 4.72307 8.23943C4.76858 8.24659 4.82477 8.2416 4.86591 8.2242C5.06862 8.13848 5.23778 8.01214 5.38713 7.86817C5.60933 7.65398 5.81745 7.42858 6.04466 7.2186C6.18834 7.08581 6.35581 6.97235 6.51274 6.85034C6.52942 6.83737 6.54903 6.82682 6.56379 6.81245C6.7889 6.59318 7.07913 6.49629 7.40903 6.47932C7.5465 6.47224 7.68534 6.46958 7.82259 6.47756C8.22605 6.501 8.62602 6.48617 9.02663 6.43542C9.67897 6.35279 10.3262 6.25199 10.9567 6.08162C11.5229 5.92862 12.0641 5.72646 12.573 5.46078C12.614 5.4394 12.6661 5.42742 12.7142 5.42398C13.2782 5.38362 13.8434 5.35379 14.4063 5.30454C14.8276 5.26769 15.2427 5.18521 15.624 5.02309C15.9217 4.89649 16.2244 4.86627 16.543 4.90242C16.888 4.94156 17.1677 4.84997 17.386 4.61232C17.5334 4.45196 17.6841 4.29354 17.8419 4.14093C17.9939 3.99394 18.1699 3.87231 18.3993 3.82604C19.1709 3.6704 19.8693 4.28064 19.7004 4.95624C19.6609 5.1146 19.5814 5.20707 19.3956 5.26901C18.6871 5.50515 17.9872 5.7608 17.2839 6.00874C17.0467 6.09234 16.8455 6.21517 16.6592 6.3711C15.547 7.30193 14.3183 8.10436 13.0258 8.83713C12.7 9.02185 12.369 9.19459 12.0217 9.34589C11.8579 9.41726 11.7026 9.50239 11.5832 9.62715C11.2855 9.93819 11.4515 10.4145 11.895 10.5021C12.0184 10.5265 12.1534 10.5269 12.2801 10.5147C12.5274 10.491 12.7368 10.394 12.921 10.245C13.4266 9.8359 13.9901 9.48944 14.5462 9.13526C15.0707 8.80114 15.5935 8.46463 16.0541 8.06359C16.2267 7.91331 16.3986 7.75897 16.5431 7.58875C16.7288 7.36988 16.9625 7.20675 17.2326 7.08254C17.5404 6.94095 17.8581 6.81548 18.1713 6.6826C18.4143 6.5795 18.6393 6.45585 18.8549 6.3105C19.1179 6.1332 19.4091 5.98601 19.6954 5.83632C19.9895 5.68259 20.2945 5.54433 20.5537 5.34519C20.737 5.20434 20.8736 5.03464 20.9972 4.85118C21.0898 4.71374 21.2172 4.59221 21.3402 4.47218C21.7761 4.04691 22.2809 3.6868 22.7924 3.33347C23.0589 3.14936 23.3242 2.96391 23.5925 2.78175C23.6305 2.75593 23.6806 2.73959 23.7281 2.7287C24.473 2.55784 25.2206 2.39507 25.9427 2.15794C26.6612 1.92202 27.333 1.61546 27.9161 1.17547C27.9604 1.14206 28.0014 1.1047 28.0397 1.06603C28.5155 0.585541 29.0792 0.217604 29.7916 0.0424092C29.9722 -0.00199493 30.1577 -0.0151565 30.3433 0.0204379C30.631 0.0756422 30.8121 0.236248 30.9298 0.463943C31.0175 0.633588 31.0258 0.795088 30.9392 0.970279C30.7933 1.26546 30.5795 1.51752 30.3191 1.73954C30.0138 1.99969 29.6972 2.2498 29.3849 2.50365C29.3691 2.5165 29.3483 2.52816 29.3276 2.53257C28.719 2.6624 28.199 2.94015 27.7052 3.26153C27.5926 3.33482 27.4838 3.41249 27.3705 3.485C27.3145 3.52089 27.2546 3.55342 27.1926 3.58089C27.0424 3.64745 26.9293 3.7472 26.8412 3.86918C26.7889 3.94146 26.7398 4.0157 26.6941 4.09123C26.5738 4.28981 26.4143 4.45573 26.2227 4.61024C25.8788 4.88746 25.5372 5.17208 25.2387 5.48516C24.6703 6.08143 24.1361 6.7022 23.5815 7.30858C22.9186 8.0335 22.2888 8.7837 21.5273 9.43598C20.8561 10.0109 20.1683 10.5713 19.4871 11.1374C19.3122 11.2827 19.1333 11.4244 18.9587 11.57C18.9345 11.5901 18.9163 11.6214 18.9089 11.6501C18.4033 13.6311 17.8972 15.6119 17.3958 17.5937C17.2409 18.2059 17.0981 18.8204 16.9521 19.4342C16.8743 19.7613 16.7795 20.0868 16.7321 20.4173C16.667 20.8722 16.6262 21.3305 16.5993 21.7884C16.5683 22.3175 16.5624 22.8478 16.5483 23.3776C16.5432 23.5728 16.5499 23.7682 16.543 23.9633C16.5403 24.0379 16.5221 24.1137 16.4982 24.1858C16.4119 24.4473 16.1755 24.6095 15.8318 24.62C15.3675 24.6343 14.9024 24.6267 14.438 24.6396C14.1515 24.6476 13.8658 24.6762 13.5798 24.6954C13.5242 24.6991 13.4918 24.7208 13.4696 24.7688C13.1796 25.3945 12.9819 26.0424 12.879 26.7093C12.8032 27.1999 12.763 27.6946 12.7055 28.1874C12.6999 28.2356 12.6825 28.2826 12.6728 28.3306C12.6302 28.5414 12.6968 28.7418 12.7476 28.9445C12.7857 29.0966 12.8162 29.2506 12.838 29.4051C12.8476 29.4738 12.8328 29.5464 12.8196 29.6159C12.7839 29.8046 12.6609 29.9334 12.4531 30C12.3122 30 12.1713 30 12.0305 30C11.8125 29.9553 11.5946 29.91 11.3763 29.8665C11.3441 29.8601 11.3094 29.859 11.2763 29.8611C10.648 29.9026 10.0197 29.9448 9.39144 29.9872C9.3525 29.9899 9.31384 29.9957 9.27505 30C8.48053 30 7.68602 30 6.89151 30Z" fill="red"/>
</svg>
