<svg width="26" height="26" viewBox="0 0 26 26" fill="none" xmlns="http://www.w3.org/2000/svg">
<path d="M12.5789 0.287109C19.6861 0.287109 25.0667 6.11431 25.0667 12.7811C25.0667 20.5131 18.7602 25.3127 12.5538 25.3127C10.5017 25.3127 8.2244 24.7614 6.39753 23.6836C5.75937 23.2952 5.22132 23.0069 4.53312 23.2325L2.00553 23.9844C1.36737 24.1849 0.791785 23.6836 0.979477 23.0069L1.81784 20.1998C1.95548 19.8114 1.93045 19.3978 1.73025 19.072C0.654144 17.092 0.0410156 14.924 0.0410156 12.8187C0.0410156 6.2271 5.30891 0.287109 12.5789 0.287109ZM18.2972 11.2272C17.4088 11.2272 16.6956 11.9415 16.6956 12.8313C16.6956 13.7085 17.4088 14.4353 18.2972 14.4353C19.1856 14.4353 19.8989 13.7085 19.8989 12.8313C19.8989 11.9415 19.1856 11.2272 18.2972 11.2272ZM12.5288 11.2272C11.6529 11.2147 10.9272 11.9415 10.9272 12.8187C10.9272 13.7085 11.6404 14.4228 12.5288 14.4353C13.4172 14.4353 14.1305 13.7085 14.1305 12.8313C14.1305 11.9415 13.4172 11.2272 12.5288 11.2272ZM6.7604 11.2272C5.87199 11.2272 5.15876 11.9415 5.15876 12.8313C5.15876 13.7085 5.8845 14.4353 6.7604 14.4353C7.64881 14.4228 8.36204 13.7085 8.36204 12.8313C8.36204 11.9415 7.64881 11.2272 6.7604 11.2272Z" fill="#EFF2F4"/>
</svg>
