<svg width="25" height="25" viewBox="0 0 25 25" fill="none" xmlns="http://www.w3.org/2000/svg">
<path d="M17.9228 0.439453C22.0568 0.439453 24.834 3.3401 24.834 7.65623V17.6172C24.834 21.9333 22.0568 24.834 17.9216 24.834H7.35064C3.21664 24.834 0.439453 21.9333 0.439453 17.6172V7.65623C0.439453 3.3401 3.21664 0.439453 7.35064 0.439453H17.9228ZM19.2679 13.3076C17.9604 12.492 16.9509 13.6374 16.6787 14.0037C16.4162 14.3574 16.1905 14.7476 15.9526 15.1378C15.3712 16.1008 14.7052 17.211 13.5522 17.8567C11.8768 18.7844 10.6049 17.9297 9.6899 17.3079C9.34648 17.0763 9.01286 16.8573 8.68047 16.7113C7.86115 16.3576 7.12401 16.7604 6.02995 18.15C5.45593 18.8763 4.88682 19.5963 4.31035 20.3138C3.9657 20.743 4.04788 21.4051 4.51273 21.6921C5.25478 22.1491 6.15996 22.3945 7.18288 22.3945H17.4624C18.0426 22.3945 18.6239 22.3152 19.1783 22.1339C20.4269 21.7261 21.418 20.7921 21.9356 19.5586C22.3722 18.5213 22.5844 17.2626 22.176 16.2153C22.0398 15.8679 21.8362 15.5444 21.5504 15.2599C20.801 14.516 20.1007 13.8212 19.2679 13.3076ZM8.36628 5.31835C6.68471 5.31835 5.31835 6.68656 5.31835 8.36767C5.31835 10.0488 6.68471 11.417 8.36628 11.417C10.0466 11.417 11.4142 10.0488 11.4142 8.36767C11.4142 6.68656 10.0466 5.31835 8.36628 5.31835Z" fill="red"/>
</svg>
