<svg width="20" height="20" viewBox="0 0 20 20" fill="none" xmlns="http://www.w3.org/2000/svg">
<path d="M14.1007 4.8405C14.5452 2.17775 12.6995 0 10 0C7.3015 0 5.45575 2.17775 5.89925 4.8405L6.57075 8.87375C6.83775 10.472 8.38075 11.779 10.0002 11.779C11.6205 11.779 13.1625 10.4718 13.4288 8.87375L14.1007 4.8405ZM13.5018 12.0002C12.5618 12.884 11.3177 13.4455 10 13.4455C8.68225 13.4455 7.43825 12.884 6.49825 12.0002L1.58125 13.6395C0.71125 13.929 0 14.917 0 15.8333V20H20V15.8333C20 14.917 19.2888 13.929 18.4188 13.6395L13.5018 12.0002Z" fill="#2D3E50"/>
</svg>
